M48
;DRILL file {Pcbnew (2012-apr-16-27)-stable} date dom 23 mar 2014 15:08:07 CET
;FORMAT={2:4/ absolute / inch / suppress leading zeros}
FMAT,2
INCH,TZ
T1C0.025
T2C0.028
T3C0.035
T4C0.042
T5C0.052
T6C0.120
%
G90
G05
M72
T1
X37750Y-40500
X41250Y-28500
X46000Y-25500
X50000Y-26000
X50250Y-25500
X50750Y-25000
T2
X32750Y-41500
X33500Y-40500
X33750Y-42500
X34000Y-31500
X34250Y-43750
X34250Y-44750
X34750Y-42500
X35750Y-23000
X35750Y-24000
X35750Y-25000
X35750Y-43000
X35750Y-46250
X36000Y-31500
X36500Y-40500
X36750Y-24000
X36750Y-41500
X36750Y-43000
X36750Y-46250
X37750Y-23000
X37750Y-24000
X38750Y-24000
X38750Y-26000
X38750Y-27000
X38750Y-28000
X38750Y-29000
X38750Y-30000
X38750Y-31000
X38750Y-32000
X38750Y-33000
X38750Y-34000
X38750Y-35000
X38750Y-36000
X38750Y-37000
X38750Y-38000
X38750Y-39000
X38750Y-40000
X38750Y-41000
X38750Y-42000
X38750Y-43000
X38750Y-44000
X38750Y-45000
X38750Y-46000
X38750Y-47000
X38750Y-48000
X38750Y-49000
X39750Y-25000
X39750Y-26000
X39750Y-27000
X39750Y-28000
X39750Y-29000
X39750Y-30000
X39750Y-31000
X39750Y-32000
X39750Y-33000
X39750Y-34000
X39750Y-35000
X39750Y-36000
X39750Y-37000
X39750Y-38000
X39750Y-39000
X39750Y-40000
X39750Y-41000
X39750Y-42000
X39750Y-43000
X39750Y-44000
X39750Y-45000
X39750Y-46000
X39750Y-47000
X39750Y-48000
X39750Y-49000
X42750Y-26000
X43750Y-27000
X43750Y-28000
X43750Y-29000
X43750Y-30000
X43750Y-31000
X43750Y-32000
X43750Y-33000
X43750Y-34000
X43750Y-35000
X43750Y-36000
X43750Y-37000
X43750Y-38000
X43750Y-39000
X43750Y-40000
X43750Y-41000
X43750Y-42000
X43750Y-43000
X43750Y-44000
X43750Y-45000
X43750Y-46000
X43750Y-47000
X43750Y-48000
X43750Y-49000
X46500Y-31500
X46500Y-33500
X46500Y-35500
X46500Y-37500
X46500Y-39500
X46500Y-41500
X46500Y-43500
X46500Y-45500
X46500Y-47500
X46500Y-49500
X49500Y-30500
X49500Y-32500
X49500Y-34500
X49500Y-36500
X49500Y-38500
X49500Y-40500
X49500Y-42500
X49500Y-44500
X49500Y-46500
X49500Y-48500
X50500Y-30500
X50500Y-31500
X50500Y-32500
X50500Y-33500
X50500Y-34500
X50500Y-35500
X50500Y-36500
X50500Y-37500
X50500Y-38500
X50500Y-39500
X50500Y-40500
X50500Y-41500
X50500Y-42500
X50500Y-43500
X50500Y-44500
X50500Y-45500
X50500Y-46500
X50500Y-47500
X50500Y-48500
X50500Y-49500
T3
X32750Y-42500
X32750Y-46500
X33000Y-49250
X33500Y-16000
X33500Y-22000
X33500Y-26500
X33500Y-27500
X33500Y-28500
X33500Y-29500
X33500Y-30500
X33500Y-32500
X33500Y-34500
X33500Y-36500
X33500Y-39500
X34500Y-16000
X34500Y-22000
X35500Y-16000
X35500Y-22000
X36500Y-16000
X36500Y-22000
X36500Y-27500
X36500Y-28500
X36500Y-29500
X36500Y-30500
X36500Y-32500
X36500Y-34500
X36500Y-36500
X36500Y-39500
X37000Y-49250
X37500Y-16000
X37500Y-22000
X37500Y-26500
X38500Y-16000
X38500Y-22000
X39213Y-51000
X39500Y-16000
X39500Y-22000
X40000Y-51000
X40500Y-16000
X40500Y-22000
X40787Y-51000
X41500Y-16000
X41500Y-22000
X42500Y-16000
X42500Y-22000
X43500Y-16000
X43500Y-22000
X43500Y-52000
X44500Y-16000
X44500Y-22000
X44500Y-52000
X45500Y-16000
X45500Y-22000
X45500Y-52000
X46500Y-16000
X46500Y-22000
X47000Y-27500
X47500Y-16000
X47500Y-22000
X48500Y-16000
X48500Y-22000
X50000Y-27500
T4
X36000Y-52500
X37000Y-52500
T5
X38425Y-51000
X41575Y-51000
T6
X33500Y-52000
X34000Y-24500
X46500Y-24000
X50000Y-52000
T0
M30
