G04 (created by PCBNEW-RS274X (2012-apr-16-27)-stable) date dom 23 mar 2014 15:10:17 CET*
G01*
G70*
G90*
%MOIN*%
G04 Gerber Fmt 3.4, Leading zero omitted, Abs format*
%FSLAX34Y34*%
G04 APERTURE LIST*
%ADD10C,0.008000*%
%ADD11R,0.085000X0.085000*%
%ADD12C,0.085000*%
%ADD13C,0.080000*%
%ADD14R,0.080000X0.085000*%
%ADD15R,0.080000X0.080000*%
%ADD16R,0.110000X0.085000*%
%ADD17O,0.110000X0.085000*%
%ADD18R,0.085000X0.110000*%
%ADD19O,0.085000X0.110000*%
%ADD20O,0.090000X0.140000*%
%ADD21O,0.075000X0.090000*%
%ADD22O,0.080000X0.160000*%
%ADD23C,0.260000*%
G04 APERTURE END LIST*
G54D10*
G54D11*
X43500Y-52000D03*
G54D12*
X44500Y-52000D03*
X45500Y-52000D03*
G54D13*
X39750Y-49000D03*
X43750Y-49000D03*
X39750Y-44000D03*
X43750Y-44000D03*
X43750Y-48000D03*
X39750Y-48000D03*
X36750Y-41500D03*
X32750Y-41500D03*
X43750Y-31000D03*
X39750Y-31000D03*
X43750Y-34000D03*
X39750Y-34000D03*
X43750Y-37000D03*
X39750Y-37000D03*
X43750Y-40000D03*
X39750Y-40000D03*
X43750Y-43000D03*
X39750Y-43000D03*
X43750Y-46000D03*
X39750Y-46000D03*
X43750Y-33000D03*
X39750Y-33000D03*
X46500Y-41500D03*
X50500Y-41500D03*
X46500Y-43500D03*
X50500Y-43500D03*
X46500Y-45500D03*
X50500Y-45500D03*
X46500Y-47500D03*
X50500Y-47500D03*
X46500Y-49500D03*
X50500Y-49500D03*
X43750Y-28000D03*
X39750Y-28000D03*
X43750Y-30000D03*
X39750Y-30000D03*
X43750Y-29000D03*
X39750Y-29000D03*
X46500Y-39500D03*
X50500Y-39500D03*
X43750Y-32000D03*
X39750Y-32000D03*
X43750Y-36000D03*
X39750Y-36000D03*
X43750Y-35000D03*
X39750Y-35000D03*
X43750Y-39000D03*
X39750Y-39000D03*
X43750Y-38000D03*
X39750Y-38000D03*
X43750Y-42000D03*
X39750Y-42000D03*
X43750Y-41000D03*
X39750Y-41000D03*
X43750Y-45000D03*
X39750Y-45000D03*
X43750Y-47000D03*
X39750Y-47000D03*
X46500Y-37500D03*
X50500Y-37500D03*
X39750Y-27000D03*
X43750Y-27000D03*
X46500Y-31500D03*
X50500Y-31500D03*
X46500Y-33500D03*
X50500Y-33500D03*
X46500Y-35500D03*
X50500Y-35500D03*
X39750Y-25000D03*
X35750Y-25000D03*
X35750Y-43000D03*
X36750Y-43000D03*
G54D14*
X32750Y-42500D03*
G54D12*
X32750Y-46500D03*
G54D15*
X36500Y-40500D03*
G54D13*
X33500Y-40500D03*
G54D15*
X42750Y-26000D03*
G54D13*
X39750Y-26000D03*
G54D16*
X36500Y-30500D03*
G54D17*
X36500Y-29500D03*
X36500Y-28500D03*
X36500Y-27500D03*
X33500Y-27500D03*
X33500Y-28500D03*
X33500Y-29500D03*
X33500Y-30500D03*
G54D18*
X48500Y-16000D03*
G54D19*
X47500Y-16000D03*
X46500Y-16000D03*
X45500Y-16000D03*
X44500Y-16000D03*
X43500Y-16000D03*
X42500Y-16000D03*
X41500Y-16000D03*
X40500Y-16000D03*
X39500Y-16000D03*
X38500Y-16000D03*
X37500Y-16000D03*
X36500Y-16000D03*
X35500Y-16000D03*
X34500Y-16000D03*
X33500Y-16000D03*
X33500Y-22000D03*
X34500Y-22000D03*
X35500Y-22000D03*
X36500Y-22000D03*
X37500Y-22000D03*
X38500Y-22000D03*
X39500Y-22000D03*
X40500Y-22000D03*
X41500Y-22000D03*
X42500Y-22000D03*
X43500Y-22000D03*
X44500Y-22000D03*
X45500Y-22000D03*
X46500Y-22000D03*
X47500Y-22000D03*
X48500Y-22000D03*
G54D13*
X34000Y-31500D03*
X36000Y-31500D03*
X37750Y-23000D03*
X35750Y-23000D03*
G54D15*
X36750Y-46250D03*
G54D13*
X35750Y-46250D03*
G54D15*
X34250Y-43750D03*
G54D13*
X34250Y-44750D03*
X37750Y-24000D03*
X38750Y-24000D03*
X33750Y-42500D03*
X34750Y-42500D03*
X36750Y-24000D03*
X35750Y-24000D03*
G54D11*
X33500Y-26500D03*
G54D12*
X37500Y-26500D03*
G54D11*
X47000Y-27500D03*
G54D12*
X50000Y-27500D03*
G54D13*
X50500Y-48500D03*
X49500Y-48500D03*
X50500Y-46500D03*
X49500Y-46500D03*
X50500Y-44500D03*
X49500Y-44500D03*
X50500Y-42500D03*
X49500Y-42500D03*
X50500Y-40500D03*
X49500Y-40500D03*
X50500Y-38500D03*
X49500Y-38500D03*
X50500Y-36500D03*
X49500Y-36500D03*
X50500Y-34500D03*
X49500Y-34500D03*
X50500Y-32500D03*
X49500Y-32500D03*
X50500Y-30500D03*
X49500Y-30500D03*
G54D15*
X38750Y-49000D03*
G54D13*
X38750Y-48000D03*
X38750Y-47000D03*
G54D15*
X38750Y-46000D03*
G54D13*
X38750Y-45000D03*
X38750Y-44000D03*
G54D15*
X38750Y-43000D03*
G54D13*
X38750Y-42000D03*
X38750Y-41000D03*
G54D15*
X38750Y-40000D03*
G54D13*
X38750Y-39000D03*
X38750Y-38000D03*
G54D15*
X38750Y-37000D03*
G54D13*
X38750Y-36000D03*
X38750Y-35000D03*
G54D15*
X38750Y-34000D03*
G54D13*
X38750Y-33000D03*
X38750Y-32000D03*
G54D15*
X38750Y-31000D03*
G54D13*
X38750Y-30000D03*
X38750Y-29000D03*
G54D15*
X38750Y-28000D03*
G54D13*
X38750Y-27000D03*
X38750Y-26000D03*
G54D20*
X37000Y-52500D03*
X36000Y-52500D03*
G54D21*
X40000Y-51000D03*
X40787Y-51000D03*
G54D22*
X41575Y-51000D03*
G54D21*
X39213Y-51000D03*
G54D22*
X38425Y-51000D03*
G54D12*
X33000Y-49250D03*
X37000Y-49250D03*
G54D16*
X36500Y-39500D03*
G54D17*
X36500Y-36500D03*
X36500Y-34500D03*
X36500Y-32500D03*
X33500Y-32500D03*
X33500Y-34500D03*
X33500Y-36500D03*
X33500Y-39500D03*
G54D23*
X50000Y-52000D03*
X33500Y-52000D03*
X46500Y-24000D03*
X34000Y-24500D03*
M02*
